<svg style="display: none" xmlns="http://www.w3.org/2000/svg" xmlns:xlink="http://www.w3.org/1999/xlink">
	<symbol id="icon-target" viewBox="0 0 24 24">
		<path d="M12 18.984c3.891 0 6.984-3.094 6.984-6.984s-3.094-6.984-6.984-6.984-6.984 3.094-6.984 6.984 3.094 6.984 6.984 6.984zM20.953 11.016h2.063v1.969h-2.063c-0.469 4.172-3.797 7.5-7.969 7.969v2.063h-1.969v-2.063c-4.172-0.469-7.5-3.797-7.969-7.969h-2.063v-1.969h2.063c0.469-4.172 3.797-7.5 7.969-7.969v-2.063h1.969v2.063c4.172 0.469 7.5 3.797 7.969 7.969zM12 8.016c2.203 0 3.984 1.781 3.984 3.984s-1.781 3.984-3.984 3.984-3.984-1.781-3.984-3.984 1.781-3.984 3.984-3.984z">
		</path>
	</symbol>
	<symbol id="icon-arrow-right" viewBox="0 0 5 9">
		<polygon points="0.0384162205 0.95551209 3.65841622 4.53551209 3.66037462 3.82256176 0.000374620054 7.40256176 0.69962538 8.11743824 4.35962538 4.53743824 4.72304863 4.18195867 4.36158378 3.82448791 0.741583779 0.24448791"></polygon>
	</symbol>
	<symbol id="icon-plug" viewBox="0 0 32 32">
		<path class="path1" d="M32 8.828l-2.828-2.828-5.586 5.586-3.172-3.172 5.586-5.586-2.828-2.828-5.586 5.586-3.586-3.586-2.707 2.707 16 16 2.707-2.707-3.586-3.586 5.586-5.586z"></path>
	<path class="path2" d="M24.814 21.056l-13.87-13.87c-2.994 3.591-6.391 9.139-4.044 13.913l-4.133 4.133c-0.972 0.972-0.972 2.563 0 3.535l0.464 0.464c0.972 0.972 2.563 0.972 3.536 0l4.133-4.133c4.774 2.348 10.322-1.049 13.913-4.043z"></path>
	</symbol>
	<symbol id="icon-cross" viewBox="0 0 24 24">
		<path class="path1" d="M19 4q0.43 0 0.715 0.285t0.285 0.715q0 0.422-0.289 0.711l-6.297 6.289 6.297 6.289q0.289 0.289 0.289 0.711 0 0.43-0.285 0.715t-0.715 0.285q-0.422 0-0.711-0.289l-6.289-6.297-6.289 6.297q-0.289 0.289-0.711 0.289-0.43 0-0.715-0.285t-0.285-0.715q0-0.422 0.289-0.711l6.297-6.289-6.297-6.289q-0.289-0.289-0.289-0.711 0-0.43 0.285-0.715t0.715-0.285q0.422 0 0.711 0.289l6.289 6.297 6.289-6.297q0.289-0.289 0.711-0.289z"></path>

	</symbol>

	<symbol id="icon-heart" viewBox="0 0 28 28">
	<path d="M14 26c-0.25 0-0.5-0.094-0.688-0.281l-9.75-9.406c-0.125-0.109-3.563-3.25-3.563-7 0-4.578 2.797-7.313 7.469-7.313 2.734 0 5.297 2.156 6.531 3.375 1.234-1.219 3.797-3.375 6.531-3.375 4.672 0 7.469 2.734 7.469 7.313 0 3.75-3.437 6.891-3.578 7.031l-9.734 9.375c-0.187 0.187-0.438 0.281-0.688 0.281z"></path>
	</symbol>

	<symbol id="icon-thumb" viewBox="0 0 32 32">
	<path d="M29.164 10.472c-1.25-0.328-4.189-0.324-8.488-0.438 0.203-0.938 0.25-1.784 0.25-3.286 0-3.588-2.614-6.748-4.926-6.748-1.633 0-2.979 1.335-3 2.977-0.022 2.014-0.645 5.492-4 7.256-0.246 0.13-0.95 0.477-1.053 0.522l0.053 0.045c-0.525-0.453-1.253-0.8-2-0.8h-3c-1.654 0-3 1.346-3 3v16c0 1.654 1.346 3 3 3h3c1.19 0 2.186-0.719 2.668-1.727 0.012 0.004 0.033 0.010 0.047 0.012 0.066 0.018 0.144 0.037 0.239 0.062 0.018 0.005 0.027 0.007 0.046 0.012 0.576 0.143 1.685 0.408 4.055 0.953 0.508 0.116 3.192 0.688 5.972 0.688h5.467c1.666 0 2.867-0.641 3.582-1.928 0.010-0.020 0.24-0.469 0.428-1.076 0.141-0.457 0.193-1.104 0.023-1.76 1.074-0.738 1.42-1.854 1.645-2.58 0.377-1.191 0.264-2.086 0.002-2.727 0.604-0.57 1.119-1.439 1.336-2.766 0.135-0.822-0.010-1.668-0.389-2.372 0.566-0.636 0.824-1.436 0.854-2.176l0.012-0.209c0.007-0.131 0.013-0.212 0.013-0.5 0-1.263-0.875-2.874-2.836-3.434zM7 29c0 0.553-0.447 1-1 1h-3c-0.553 0-1-0.447-1-1v-16c0-0.553 0.447-1 1-1h3c0.553 0 1 0.447 1 1v16zM29.977 14.535c-0.020 0.494-0.227 1.465-1.977 1.465-1.5 0-2 0-2 0-0.277 0-0.5 0.224-0.5 0.5s0.223 0.5 0.5 0.5c0 0 0.438 0 1.938 0s1.697 1.244 1.6 1.844c-0.124 0.746-0.474 2.156-2.163 2.156-1.687 0-2.375 0-2.375 0-0.277 0-0.5 0.223-0.5 0.5 0 0.275 0.223 0.5 0.5 0.5 0 0 1.188 0 1.969 0 1.688 0 1.539 1.287 1.297 2.055-0.319 1.009-0.514 1.945-2.641 1.945-0.719 0-1.631 0-1.631 0-0.277 0-0.5 0.223-0.5 0.5 0 0.275 0.223 0.5 0.5 0.5 0 0 0.693 0 1.568 0 1.094 0 1.145 1.035 1.031 1.406-0.125 0.406-0.273 0.707-0.279 0.721-0.302 0.545-0.789 0.873-1.82 0.873h-5.467c-2.746 0-5.47-0.623-5.54-0.639-4.154-0.957-4.373-1.031-4.634-1.105 0 0-0.846-0.143-0.846-0.881l-0.007-13.812c0-0.469 0.299-0.893 0.794-1.042 0.062-0.024 0.146-0.050 0.206-0.075 4.568-1.892 5.959-6.040 6-9.446 0.006-0.479 0.375-1 1-1 1.057 0 2.926 2.122 2.926 4.748 0 2.371-0.096 2.781-0.926 5.252 10 0 9.93 0.144 10.812 0.375 1.094 0.313 1.188 1.219 1.188 1.531 0 0.343-0.010 0.293-0.023 0.629zM4.5 26c-0.828 0-1.5 0.672-1.5 1.5s0.672 1.5 1.5 1.5 1.5-0.672 1.5-1.5-0.672-1.5-1.5-1.5zM4.5 28c-0.275 0-0.5-0.225-0.5-0.5s0.225-0.5 0.5-0.5 0.5 0.225 0.5 0.5-0.225 0.5-0.5 0.5z"></path>
	</symbol>

	<symbol id="icon-calendar" viewBox="0 0 32 32">
		<path d="M10 12h4v4h-4zM16 12h4v4h-4zM22 12h4v4h-4zM4 24h4v4h-4zM10 24h4v4h-4zM16 24h4v4h-4zM10 18h4v4h-4zM16 18h4v4h-4zM22 18h4v4h-4zM4 18h4v4h-4zM26 0v2h-4v-2h-14v2h-4v-2h-4v32h30v-32h-4zM28 30h-26v-22h26v22z"></path>
	</symbol>

	<symbol id="icon-info" viewBox="0 0 45 45">
		<path d="M22.835,3.829c-10.201,0-18.5,8.3-18.5,18.502c0,10.199,8.299,18.496,18.5,18.496s18.5-8.297,18.5-18.496
			C41.335,12.129,33.036,3.829,22.835,3.829z M22.863,9.435c1.339,0,2.399,1.057,2.399,2.395c0,1.339-1.061,2.396-2.399,2.396
			c-1.335,0-2.391-1.058-2.391-2.396C20.473,10.491,21.528,9.435,22.863,9.435z M26.114,33.952h-6.561
			c-0.803,0-1.455-0.653-1.455-1.456c0-0.585,0.352-1.081,0.848-1.312v-0.002c0.188-0.085,0.388-0.141,0.607-0.141h1.51l0.06-10.579
			h-1.45c-0.803,0-1.455-0.65-1.455-1.454s0.652-1.455,1.455-1.455h3.192h1.742l-0.06,13.488h1.566c0.218,0,0.42,0.056,0.605,0.141
			h0.003v0.002c0.496,0.232,0.848,0.727,0.848,1.312C27.57,33.299,26.918,33.952,26.114,33.952z"/>
	</symbol>

	<symbol id="icon-check" viewBox="0 0 24 24">
		<path class="path1" d="M21 5q0.43 0 0.715 0.285t0.285 0.715q0 0.422-0.289 0.711l-12 12q-0.289 0.289-0.711 0.289t-0.711-0.289l-6-6q-0.289-0.289-0.289-0.711 0-0.43 0.285-0.715t0.715-0.285q0.422 0 0.711 0.289l5.289 5.297 11.289-11.297q0.289-0.289 0.711-0.289z"></path>
	</symbol>
	<symbol id="icon-bullet" viewBox="0 0 6 6">
		<circle r="3" cx="3" cy="3"></circle>
	</symbol>
	<symbol id="icon-pdf" viewBox="0 0 45 45">
		<path d="M37.259,11.511l-6.455-6.428c-0.762-0.764-2.286-1.411-3.373-1.411h-18.5c-1.111,0-1.989,0.901-2.014,1.988v33.023
			c0,1.11,0.902,1.988,1.987,1.988h27.752c1.11,0,1.987-0.901,1.987-1.988V14.91C38.644,13.823,37.996,12.299,37.259,11.511z
			 M28.079,6.469c0.367,0.14,0.712,0.323,0.852,0.463l6.453,6.454c0.159,0.16,0.344,0.508,0.464,0.853h-7.769V6.469z M36.007,38.035
			H9.578V6.332h15.863v8.578c0,1.111,0.902,1.989,1.989,1.989h8.576V38.035z M24.595,24.393c-1.064-1.049-2.062-2.373-2.833-3.755
			c1.396-3.14,1.705-5.246,0.943-6.432c-0.367-0.57-0.985-0.898-1.696-0.898c-0.338,0-0.6,0.062-0.781,0.187
			c-1.704,0.961-1.666,3.755,0.085,7.188c-0.15,0.321-0.314,0.658-0.492,1.01c-1.183,2.342-2.05,4.397-2.694,5.94
			c-2.88,1.323-4.537,2.845-4.557,4.192c-0.009,0.609,0.313,1.116,0.914,1.404c0.346,0.145,0.665,0.215,0.976,0.216
			c0.001,0,0.001,0,0.001,0c1.611,0,2.357-1.695,3.667-4.835c0.93-0.401,1.985-0.786,3.138-1.145c0.019-0.006,1.736-0.516,3.726-0.89
			c1.979,1.791,3.545,2.663,4.78,2.663c0.618,0,1.152-0.225,1.545-0.648c0.577-0.625,0.675-1.487,0.64-1.912
			c-0.28-1.688-2.467-2.179-6.556-1.496C25.144,24.94,24.876,24.678,24.595,24.393z M14.46,32.145c-0.134,0-0.292-0.038-0.443-0.101
			c-0.149-0.071-0.148-0.143-0.147-0.2c0.006-0.378,0.567-1.277,2.477-2.357C15.63,31.131,15.071,32.145,14.46,32.145z M20.883,14.617
			c0.027-0.005,0.07-0.01,0.126-0.01c0.271,0,0.474,0.102,0.603,0.302c0.206,0.321,0.507,1.336-0.606,4.174
			C20.099,16.903,20.017,15.087,20.883,14.617z M20.886,26.222c-0.722,0.225-1.407,0.46-2.051,0.702
			c0.565-1.327,1.269-2.909,2.146-4.646c0.037-0.073,0.074-0.146,0.11-0.22c0.748,1.201,1.629,2.312,2.585,3.253
			c0.057,0.058,0.112,0.113,0.167,0.169C22.21,25.829,20.956,26.201,20.886,26.222z M28.51,26.181c0.615,0,2.056,0.069,2.155,0.655
			c0.011,0.128-0.045,0.592-0.304,0.872c-0.146,0.157-0.334,0.231-0.591,0.231c-0.44,0-1.386-0.234-3.098-1.63
			C27.36,26.224,27.976,26.181,28.51,26.181z"/>
	</symbol>
	<symbol id="icon-search" viewBox="0 0 21 21">
		<path d="M18.57 20.08c-0.38 0-0.75-0.16-1-0.42l-3.83-3.81c-1.3 0.9-2.87 1.38-4.45 1.38 -4.34 0-7.85-3.51-7.85-7.85s3.51-7.85 7.85-7.85 7.85 3.51 7.85 7.85c0 1.58-0.48 3.15-1.38 4.45l3.83 3.83c0.26 0.26 0.41 0.62 0.41 1C20 19.44 19.35 20.08 18.57 20.08zM9.29 4.38c-2.76 0-5 2.24-5 5s2.24 5 5 5 5-2.24 5-5S12.05 4.38 9.29 4.38z"/>
	</symbol>
	<symbol id="icon-spot" viewBox="0 0 100 100">
		<g stroke="none" stroke-width="1" fill="none" fill-rule="evenodd"><path d="M50 100C77.6142375 100 100 77.6142375 100 50 100 22.3857625 77.6142375 0 50 0 22.3857625 0 0 22.3857625 0 50 0 77.6142375 22.3857625 100 50 100ZM50.1724138 81.7241379C67.7883929 81.7241379 82.0689655 67.4435653 82.0689655 49.8275862 82.0689655 32.2116071 67.7883929 17.9310345 50.1724138 17.9310345 32.5564347 17.9310345 18.2758621 32.2116071 18.2758621 49.8275862 18.2758621 67.4435653 32.5564347 81.7241379 50.1724138 81.7241379Z" fill="#FF5C00"/><circle fill="#023B4C" cx="50" cy="50" r="11.3793103"/></g>
	</symbol>
	<symbol id="icon-pin" viewBox="0 0 10 17" >
        <g stroke="none" stroke-width="1" fill-rule="evenodd"><path d="M9.7 6.7L5 16.6 0.3 6.7C0.1 6.2 0 5.6 0 5 0 2.2 2.2 0 5 0 7.8 0 10 2.2 10 5 10 5.6 9.9 6.2 9.7 6.7ZM5 7.6C6.4 7.6 7.5 6.5 7.5 5 7.5 3.6 6.4 2.5 5 2.5 3.5 2.5 2.4 3.6 2.4 5 2.4 6.5 3.5 7.6 5 7.6Z "/></g>
	</symbol>
	<symbol id="icon-matrix" viewBox="0 0 16 14">
		<path d="M5 3.83c0 0.41-0.34 0.75-0.75 0.75h-2.5C1.34 4.58 1 4.25 1 3.83v-1.5c0-0.41 0.34-0.75 0.75-0.75h2.5C4.66 1.58 5 1.92 5 2.33V3.83zM5 7.83c0 0.41-0.34 0.75-0.75 0.75h-2.5C1.34 8.58 1 8.25 1 7.83v-1.5c0-0.41 0.34-0.75 0.75-0.75h2.5C4.66 5.58 5 5.92 5 6.33V7.83zM5 11.83c0 0.41-0.34 0.75-0.75 0.75h-2.5C1.34 12.58 1 12.25 1 11.83v-1.5c0-0.41 0.34-0.75 0.75-0.75h2.5C4.66 9.58 5 9.92 5 10.33V11.83zM10 3.83c0 0.41-0.34 0.75-0.75 0.75h-2.5C6.34 4.58 6 4.25 6 3.83v-1.5c0-0.41 0.34-0.75 0.75-0.75h2.5C9.66 1.58 10 1.92 10 2.33V3.83zM10 7.83c0 0.41-0.34 0.75-0.75 0.75h-2.5C6.34 8.58 6 8.25 6 7.83v-1.5c0-0.41 0.34-0.75 0.75-0.75h2.5C9.66 5.58 10 5.92 10 6.33V7.83zM10 11.83c0 0.41-0.34 0.75-0.75 0.75h-2.5C6.34 12.58 6 12.25 6 11.83v-1.5c0-0.41 0.34-0.75 0.75-0.75h2.5c0.41 0 0.75 0.34 0.75 0.75V11.83zM15 3.83c0 0.41-0.34 0.75-0.75 0.75h-2.5C11.34 4.58 11 4.25 11 3.83v-1.5c0-0.41 0.34-0.75 0.75-0.75h2.5c0.41 0 0.75 0.34 0.75 0.75V3.83zM15 7.83c0 0.41-0.34 0.75-0.75 0.75h-2.5C11.34 8.58 11 8.25 11 7.83v-1.5c0-0.41 0.34-0.75 0.75-0.75h2.5c0.41 0 0.75 0.34 0.75 0.75V7.83zM15 11.83c0 0.41-0.34 0.75-0.75 0.75h-2.5c-0.41 0-0.75-0.34-0.75-0.75v-1.5c0-0.41 0.34-0.75 0.75-0.75h2.5c0.41 0 0.75 0.34 0.75 0.75V11.83z"/>
	</symbol>
	<symbol id="icon-printer" viewBox="0 0 18 16">
		<path d="M15.9 12.2c0 0.1-0.1 0.3-0.3 0.3h-1.9v1.3c0 0.4-0.4 0.8-0.8 0.8H4.9c-0.4 0-0.8-0.4-0.8-0.8v-1.3H2.2c-0.1 0-0.3-0.1-0.3-0.3V8.7c0-0.9 0.7-1.6 1.6-1.6h0.5V2.5c0-0.4 0.4-0.8 0.8-0.8h5.6c0.4 0 1.1 0.3 1.4 0.6l1.3 1.3c0.3 0.3 0.6 0.9 0.6 1.4v2.1h0.5c0.9 0 1.6 0.7 1.6 1.6V12.2zM12.6 8.2V5H11.3c-0.4 0-0.8-0.4-0.8-0.8V2.8H5.1v5.4H12.6zM12.6 13.5v-2.1H5.1v2.1H12.6zM14.3 8.2c-0.3 0-0.5 0.2-0.5 0.5s0.2 0.5 0.5 0.5 0.5-0.2 0.5-0.5S14.5 8.2 14.3 8.2z"/></symbol>
	<symbol id="icon-s" viewBox="0 0 380.8 132.8" >
		<path fill-rule="evenodd" d="M380.8,79.9c0-3.5-3.9-11.1-6.3-13.3c-12.1-13.2-60.4-22.7-63.9-23.6c-3.5-0.9-12.6-3-14.3-3.1
			c-1.7-0.1-9,0-14-2.3c-5-2.3-68-30.6-68-30.6c-8.9-3.1-12.5-7-74.4-7c-35.5,0-62.6,1.8-81,3.6v0l-0.1,0C45.6,4.9,36.9,6.2,33,6.9
			L24.3,8v6.6l4.8,2.4c-10.8,8.6-18.5,21-19.9,21.4c-5.5,5.9-7.4,10.8-7.5,12.6c-0.1,1.7-5.2,61.8,2.7,65.4c0.3,0.2,8,0.3,20.8,0.5
			c-1.3-3.8-2-7.9-2-12.1c0-20.4,16.6-37,37-37c20.4,0,37,16.6,37,37c0,4.4-0.8,8.7-2.2,12.6c51.7,0.3,116.7,0.5,170.8,0.5
			c-1.5-4.1-2.4-8.5-2.4-13.1c0-20.4,16.6-37,37-37c20.4,0,37,16.6,37,37c0,4.6-0.8,8.9-2.3,13c21.5-0.1,35.5-0.3,37.2-0.6
			C381.6,115.6,380.8,82.1,380.8,79.9z M119.1,39c-18.9-1.5-24.3-3.2-28.2-4.3l-0.4-0.1c-0.7-0.2-1.7-0.6-3-1l-4-20.4
			c9.5-1.2,33.3-3.6,55.3-4.3l6.8,32.3C135.2,40.2,119.1,39,119.1,39z M235.2,46.9c-2.1-0.1-4.3-0.2-6.6-0.3c0,0,0,0-0.1,0v0
			c-19.9-1-43.7-2.7-64.9-4.2L151.9,8.6c25.9,0.2,45.1,3.2,63.9,10.2c2.9,1.1,6.4,2.6,10.3,4.4l0,0c0.1,0,0.1,0.1,0.2,0.1
			c0.2,0.1,0.3,0.2,0.5,0.2l0,0c7.3,3.7,20.2,10.5,30.1,16.3l0.9,8C253.7,47.8,243.2,47.3,235.2,46.9L235.2,46.9z"/>
		<path d="M60.2,76.5c-15.5,0-28.2,12.6-28.2,28.2c0,15.5,12.6,28.1,28.2,28.1c15.5,0,28.2-12.6,28.2-28.1
			C88.4,89.2,75.8,76.5,60.2,76.5z M60.2,119.7c-8.3,0-15-6.7-15-15s6.7-15,15-15c8.3,0,15,6.7,15,15S68.5,119.7,60.2,119.7z"/>
		<path d="M300.4,76.5c-15.5,0-28.2,12.6-28.2,28.2c0,15.5,12.6,28.1,28.2,28.1c15.5,0,28.2-12.6,28.2-28.1
			C328.6,89.2,316,76.5,300.4,76.5z M300.4,119.7c-8.3,0-15-6.7-15-15s6.7-15,15-15c8.3,0,15,6.7,15,15S308.7,119.7,300.4,119.7z"/>
	</symbol>

	<symbol id="icon-spezial" viewBox="0 0 334.8 145.8">
		<path d="M52.1,89.5c-15.5,0-28.2,12.6-28.2,28.2c0,15.5,12.6,28.1,28.2,28.1c15.5,0,28.2-12.6,28.2-28.1
			C80.3,102.1,67.7,89.5,52.1,89.5z M52.1,132.7c-8.3,0-15-6.7-15-15c0-8.3,6.7-15,15-15c8.3,0,15,6.7,15,15
			C67.2,125.9,60.4,132.7,52.1,132.7z"/>
		<path d="M277.3,89.5c-15.5,0-28.2,12.6-28.2,28.2c0,15.5,12.6,28.1,28.2,28.1c15.5,0,28.2-12.6,28.2-28.1
			C305.5,102.1,292.8,89.5,277.3,89.5z M277.3,132.7c-8.3,0-15-6.7-15-15c0-8.3,6.7-15,15-15c8.3,0,15,6.7,15,15
			C292.3,125.9,285.6,132.7,277.3,132.7z"/>
		<path fill-rule="evenodd" d="M333.5,86.3c0,0-3-14.4-9.3-20.2c-0.5-0.7-2.5-2.7-9.2-7.1c-6.6-4.4-27.2-11.2-36.9-12.8
			c-2.3-0.4-9.7-0.8-12.6-0.6c-14.1-11.2-52.3-31.5-67.9-38C182.1,1.2,145.2,0,115.5,0c-7.2,0-36.3,0.5-60.8,3v0l0,0
			c-6.5,0.7-12.7,1.5-18,2.5L21,7.6v6.6l4.3,2.2C21.1,20.6,8,34.1,3.1,48c-3.8,5-3,49.6-3,50.7c0,1.2,0.5,21.3,1,21.3
			c0.6,0,13.5,0.3,14.1-0.4c0,0,0,0,0.1,0c0-0.7-0.1-1.4-0.1-2.1c0-20.4,16.6-37,37-37c20.4,0,37,16.6,37,37c0,1.1-0.1,2.2-0.2,3.3
			c45.2,0.9,103.5,2.1,151.8,3c-0.4-2.1-0.5-4.2-0.5-6.3c0-20.4,16.6-37,37-37c20.4,0,37,16.6,37,37c0,2.6-0.3,5.2-0.8,7.6
			c12.4,0.2,19.7,0.3,19.9,0.2c0.9-0.8,1-9.6,1-10.6c0-1,0.4-9.5,0.4-14.8C334.8,94.6,333.5,86.3,333.5,86.3z M94.2,45.5
			c-5.6-0.2-10.9-1.4-12.8-2.2c-2.2-0.9-21.1-10.7-25.1-13.2c-3.2-2-2.6-3.8-1.7-5.4c0.7-1.2,3.8-6.7,5.2-8.7
			c1.4-1.9,4.1-3.7,6.6-4.2c2.6-0.5,29.2-2.7,43.5-3.1l5,37.1C101.9,45.3,96.9,45.5,94.2,45.5z M130.8,46.9l-9.6-37.9
			c8-0.1,33.6,1.2,42.2,1.9c7.8,0.6,23,2.7,36.3,8.4c6.3,2.8,12.9,6.2,19.2,9.6l3.5,22.2C199.9,50.3,161.1,48.2,130.8,46.9z"/>
	</symbol>

	<symbol id="icon-m" viewBox="0 0 414.3 139.4">
			<path fill-rule="evenodd" d="M413.3,77.5c-3.2-10.3-15.6-19.4-25.8-21.8c-29.7-8.6-65.4-14.3-69-14.7C296.4,27.2,253,9.4,244.8,6.8
				C236.6,4.2,232,0,189.7,0c-67.1,0-87.6,2.7-126.2,7.5l-32,3v6.6l3.8,1.9c-9.1,6.2-20.3,14.5-24.9,19.6c-1.3,1.4-3.2,3-4.3,4.5
				C1.8,48.7,0.2,59.4,0,69.2c-0.1,2.7,0.3,32.6,0,33.2c0.1,3.8,1.3,16.3,3,16.5c2.6,0.3-1.7,0.5,50.2,0.5c-0.6-2.7-0.9-5.4-0.9-8.3
				c0-20.4,16.6-37,37-37c20.4,0,37,16.6,37,37c0,2.9-0.3,5.6-1,8.3c4.3,0,8.6,0,13.2,0c1.7-0.1,92,1.6,168,3.1
				c-2.4-4.9-3.8-10.5-3.8-16.3c0-20.4,16.6-37,37-37c20.4,0,37,16.6,37,37c0,6.4-1.6,12.3-4.4,17.6c21.5,0.4,35.9,0.7,37.4,0.7
				C416.6,124.5,413.8,79.3,413.3,77.5z M96.3,35.2c-11.2-1-14.7-1.7-19.1-2.6c-1.5-0.3-0.6-1.5-0.6-1.5c1.2-1.6,3.3-4.2,4.2-5.1
				c3.5-3.8,7.9-7.5,11.7-8.9c0,0,3.2-1.9,12.6-3.1C103.1,18.2,97.1,33.5,96.3,35.2z M165.2,41.1c-11.5-0.8-20.8-1.6-32.8-2.4
				c-8.8-0.6-15.4-1.1-23.2-1.8c0.8-3.9,7.1-22.2,7.8-23.6c2.8-0.3,6.7-0.7,11.6-1.2l0,0c1.2-0.1,2.4-0.2,3.6-0.3c0,0,0,0,0.1,0v0
				c14.9-1.3,30.2-2.4,50.7-2.6l3.5,33.3C178,41.9,165.2,41.1,165.2,41.1z M204.2,43.7l-9-34.6C229.4,9,243.5,17,265.9,28
				c0,0,3,1.3,3.7,1.7c0.3,1.4,3.2,15,3.9,18.4C255.3,47.2,230.7,45.6,204.2,43.7z"/>
		<path class="st1" d="M339.8,78.1c-15.5,0-28.2,12.6-28.2,28.2c0,15.5,12.6,28.1,28.2,28.1c15.5,0,28.2-12.6,28.2-28.1
			C368,90.7,355.4,78.1,339.8,78.1z M339.8,121.3c-8.3,0-15-6.7-15-15s6.7-15,15-15c8.3,0,15,6.7,15,15S348.1,121.3,339.8,121.3z"/>
		<path class="st1" d="M89.3,83c-15.5,0-28.2,12.6-28.2,28.2c0,15.5,12.6,28.1,28.2,28.1c15.5,0,28.2-12.6,28.2-28.1
			C117.5,95.7,104.8,83,89.3,83z M89.3,126.2c-8.3,0-15-6.7-15-15s6.7-15,15-15c8.3,0,15,6.7,15,15S97.6,126.2,89.3,126.2z"/>
	</symbol>

	<symbol id="icon-l" viewBox="0 0 575.6 234.4">
		<path d="M73.8,118c-15.5,0-28.2,12.6-28.2,28.2c0,15.5,12.7,28.2,28.2,28.2c15.6,0,28.2-12.7,28.2-28.2
			C102,130.6,89.3,118,73.8,118z M73.8,161.2c-8.3,0-15.1-6.7-15.1-15c0-8.3,6.7-15.1,15.1-15.1c8.3,0,15.1,6.7,15.1,15.1
			C88.9,154.5,82.1,161.2,73.8,161.2z"/>
		<path d="M494,178.5c-15.4,0-27.9,12.5-27.9,27.9c0,15.4,12.5,27.9,27.9,27.9c15.4,0,27.9-12.5,27.9-27.9
			C521.9,191.1,509.4,178.5,494,178.5z M494,221.3c-8.2,0-14.9-6.7-14.9-14.9c0-8.2,6.7-14.9,14.9-14.9c8.2,0,14.9,6.7,14.9,14.9
			C508.9,214.7,502.2,221.3,494,221.3z"/>
		<path d="M166.9,119.7v-4.3v-6.2v-6.6l6.5-1.3l3.4-0.6l0,0l0,0c13.4-2.5,61.6-6,97.2-7c16.5-0.5,28.1-0.6,35.3-0.6h0
			c3.5,0,6.6,0,9.5,0c2.3,0,4.5,0,6.5,0c24.5,0,57.4,2.8,76.5,10.6c15.5,6.3,54.6,28.1,64,33.4c2.5-0.1,6.5-0.3,8.6-0.3h0.4l0.4,0
			c2.5,0.2,4.8,0.5,7.2,0.7c0.1-2.7,0.2-5.7,0.2-9.1c-1.5-19.9-11.5-32.9-11.5-32.9c-3.3-5.3-17.3-18.7-49.5-32.1
			c-4.9-2.1-23.1-9.2-26.8-12.3C374.4,34.2,343.3,12,343.3,12c-14.8-6.5-20.2-5.8-28.4-7c-10.6-1.4-35-2.6-45.6-2.7
			C258.8,2.2,26.4,0,26.4,0c-1.1,0-3.6,0-3.6,0L3.7,1.3v7.1l5.3,3c0,0-1.4,10.9-2,14.2h0C3.4,48,0.7,72.9,0.7,100.3
			c-0.5,5.4-2.7,48.2,4.2,55.6c2.4,0,14.5,0.2,33.2,0.3c-0.9-3.2-1.4-6.5-1.4-10c0-20.4,16.6-37.1,37.1-37.1
			c20.4,0,37.1,16.6,37.1,37.1c0,3.7-0.6,7.3-1.6,10.7c9.9,0.1,20.3,0.2,31,0.3c0.8-10,1.5-10.9,2.7-12.5l0,0l0,0
			C146.7,139.9,156.9,129.5,166.9,119.7z M278.9,21.7c0-0.4,0-0.7,0-1c0.1-1.7,2.8-3.8,7.7-4.5c5.3-0.9,13.4-1.1,17.7-1.1
			c6.1-0.1,20.5,3.6,25.2,6.9c0,0,28.1,17,35.3,23.4c1.9,1.8,3.2,4.1,3.2,6.1c-0.1,1.6-1.1,9.1-1.8,14.6l-1,7.5
			c-0.1,0.7-0.6,1.9-1.7,2.7c-1.2,0.9-3,1.2-4.9,0.8c-7.1-1.7-22.5-5.3-29.6-7v0c-11.4-2.6-23.2-5.3-35.2-8.5
			c-6.9-1.8-11.6-7.9-12.8-15.3C279.8,39.7,278.8,26.5,278.9,21.7z"/>
		<path d="M575.6,184.2c-0.4-1.8-1.4-7-4.1-10.6c-4.4-6-21.1-21.8-97.2-28.6c-2.9,0-10.5,0.4-10.5,0.4s-48.1-27.2-65.1-34.1
			c-17.1-7-47.6-10-73.5-10c-4.4,0-9.5-0.1-15.9-0.1c-8.8,0-19.9,0.1-35.1,0.5c-37.3,1.1-83.8,4.6-96,6.9l-3.4,0.6v6.2l5.2,2.6
			c-8.4,8.1-26,25.4-30.7,31.5c-1.4,1.8-3.5,51.9-3.5,51.9c0,2.5,1.4,7.2,3.4,9c1.9,1.8,2.1,2.3,4.7,2.5c2.6,0.1,48.7,4.4,50.8,4.6
			c0.1,0,0.6,0,1.5,0c-1.1-3.5-1.7-7.2-1.7-11.1c0-20.2,16.5-36.7,36.7-36.7c20.2,0,36.7,16.5,36.7,36.7c0,4.3-0.7,8.4-2.1,12.2
			c53.3,0.8,126.6,1.9,184.6,2.8c-2-4.6-3.2-9.6-3.2-15c0-20.2,16.5-36.7,36.7-36.7c20.2,0,36.7,16.5,36.7,36.7
			c0,5.7-1.3,11.1-3.6,15.9c16.8,0.2,27,0.4,27.1,0.4c0.9,0,19.3-0.3,19.3-1.4C573.5,220.1,576,185.9,575.6,184.2z M251.9,142.8
			c-20.5-0.7-31.2-1.2-31.2-1.2c-9,0-13.4-1.6-16.9-3.6c-0.5-0.2-2.7-1.4-0.9-4.4c1.8-3,3.4-5.5,6.3-9.2l1.2-1.6
			c2.6-3.4,4.1-3.9,8.7-4.9c12.4-1.4,20.4-2.4,37.1-3.1L251.9,142.8z M264.6,143l2.3-28.3c23.4-0.9,45.9-1.6,61.3-1.9l4.5,33.1
			C318,145.3,287.8,143.8,264.6,143z M351,146.4l-10.9-33.7c41.3,0.4,63.7,12,82.2,23.6l2.2,12.9C407.1,148.5,382.5,147.6,351,146.4z
			"/>
		<path d="M241.2,178.5c-15.4,0-27.9,12.5-27.9,27.9c0,15.4,12.5,27.9,27.9,27.9c15.4,0,27.9-12.5,27.9-27.9
			C269.1,191.1,256.6,178.5,241.2,178.5z M241.2,221.3c-8.2,0-14.9-6.7-14.9-14.9c0-8.2,6.7-14.9,14.9-14.9c8.2,0,14.9,6.7,14.9,14.9
			C256.1,214.7,249.4,221.3,241.2,221.3z"/>
	</symbol>

	<symbol id="icon-duration" viewBox="0 0 16 14">
		<path d="M7.94 1.13c-1.54 0-3.03 0.62-4.13 1.66L2.79 1.78C2.65 1.63 2.43 1.59 2.25 1.67 2.06 1.75 1.94 1.92 1.94 2.13v3.5c0 0.27 0.23 0.64 0.5 0.64h3.5c0.2 0 0.38-0.2 0.46-0.38 0.08-0.18 0.04-0.43-0.11-0.57l-1.07-1.1c0.73-0.68 1.7-1.08 2.72-1.08 2.2 0 4 1.79 4 4s-1.8 4-4 4c-1.24 0-2.39-0.56-3.16-1.56C4.74 9.52 4.67 9.49 4.6 9.48c-0.07 0-0.14 0.02-0.2 0.07l-1.07 1.08c-0.09 0.09-0.09 0.23-0.02 0.34 1.14 1.38 2.83 2.16 4.62 2.16 3.3 0 6-2.7 6-6S11.24 1.13 7.94 1.13z"/><polygon points="8.94 4.27 7.94 4.27 7.94 8.27 5.94 8.27 5.94 9.27 8.94 9.27 "/>
	</symbol>
	<symbol id="icon-case" viewBox="0 0 16 16">
		<path d="M1.04 5.74v6.5c0 0.96 0.79 1.97 1.75 1.97h0.25v-10H2.79C1.83 4.21 1.04 4.78 1.04 5.74zM11.04 2.74c0-0.41-0.34-0.53-0.75-0.53h-4.5c-0.41 0-0.75 0.12-0.75 0.53v1.47h-1v10h8v-10h-1V2.74zM10.04 4.21h-4v-1h4V4.21zM13.29 4.21h-0.25v10h0.25c0.96 0 1.75-1.01 1.75-1.97v-6.5C15.04 4.78 14.25 4.21 13.29 4.21z"/>
	</symbol>
	<symbol id="icon-ways" viewBox="0 0 16 16">
		<polygon id="XMLID_675_" points="14.3 3.2 12.6 1.5 8.6 1.5 8.6 0.5 6.6 0.5 6.6 1.5 1.6 1.5 1.6 4.5 12.9 4.5 "/><polygon id="XMLID_676_" points="8.6 5.5 6.6 5.5 6.6 6.5 2 6.5 0.6 7.9 2.3 9.5 13.6 9.5 13.6 6.5 8.6 6.5 "/><rect id="XMLID_677_" x="6.6" y="10.5" width="2" height="4"/>
	</symbol>
	<symbol id="icon-sliderarrow-left" viewBox="0 0 45 26">
		<polygon transform="translate(22.620000, 12.895085) scale(-1, 1) translate(-22.620000, -12.895085) " points="31.5 1.57 32.97 0.21 44.6 12.9 32.66 25.58 31.21 24.2 40.96 13.85 0.64 13.85 0.64 11.85 40.92 11.85"/>
	</symbol>
	<symbol id="icon-sliderarrow-right" viewBox="0 0 45 26">
		<polygon points="40.92 11.85 31.5 1.57 32.97 0.21 44.6 12.9 32.66 25.58 31.21 24.2 40.96 13.85 0.64 13.85 0.64 11.85 40.92 11.85"/>
	</symbol>
	<symbol id="icon-android" viewBox="0 0 27.64 31.5">
		<path d="M27.27,11.86c0-1.03-0.83-1.86-1.86-1.86s-1.86,0.83-1.86,1.86l0,7.8
		c0,1.03,0.83,1.86,1.86,1.86c1.03,0,1.86-0.83,1.86-1.86L27.27,11.86z M6.17,10.36l0,12.08c0,1.1,0.89,1.99,1.99,1.99l1.35,0l0,4.13
		c0,1.03,0.84,1.86,1.86,1.86c1.03,0,1.86-0.84,1.86-1.86l0-4.13h2.51l0,4.13c0,1.03,0.84,1.86,1.86,1.86c1.03,0,1.86-0.83,1.86-1.86
		l0-4.12l1.36,0c1.1,0,1.99-0.89,1.99-1.99l0-12.09L6.17,10.36z M18.32,6.67c-0.39,0-0.7-0.31-0.7-0.7c0-0.39,0.32-0.7,0.7-0.7
		c0.39,0,0.7,0.32,0.7,0.7C19.02,6.35,18.7,6.67,18.32,6.67 M10.68,6.67c-0.39,0-0.7-0.32-0.7-0.7c0-0.39,0.31-0.7,0.7-0.7
		c0.39,0,0.7,0.32,0.71,0.7C11.38,6.35,11.07,6.67,10.68,6.67 M18.61,3l1.3-2.37c0.07-0.12,0.02-0.28-0.1-0.35
		c-0.13-0.07-0.28-0.02-0.35,0.1l-1.31,2.4c-1.1-0.49-2.34-0.77-3.65-0.77c-1.3,0-2.54,0.27-3.64,0.76L9.54,0.38
		c-0.07-0.13-0.22-0.17-0.35-0.1C9.06,0.35,9.02,0.5,9.09,0.63L10.39,3C7.83,4.32,6.1,6.83,6.11,9.71l16.77,0
		C22.88,6.83,21.16,4.32,18.61,3 M3.59,10c-1.03,0-1.86,0.84-1.86,1.86l0,7.8c0,1.03,0.83,1.86,1.86,1.86c1.03,0,1.86-0.83,1.86-1.86
		l0-7.8C5.45,10.84,4.62,10,3.59,10"/>
	</symbol>
	<symbol id="icon-apple" viewBox="0 0 29.52 33.25">
		<path d="M20.61,1.4c0.03,0.35,0.04,0.62,0.04,0.82c0,1.74-0.63,3.27-1.9,4.58
		C17.48,8.12,16,8.77,14.32,8.77c-0.05-0.39-0.08-0.67-0.08-0.85c0-1.48,0.59-2.87,1.77-4.17c1.18-1.3,2.54-2.06,4.09-2.28
		C20.22,1.46,20.38,1.43,20.61,1.4 M26.83,11.4c-2.31,1.63-3.46,3.6-3.46,5.89c0,2.75,1.43,4.86,4.28,6.33
		c-0.77,2.21-1.87,4.14-3.32,5.78c-1.45,1.64-2.77,2.46-3.97,2.46c-0.56,0-1.33-0.19-2.31-0.56l-0.47-0.18
		c-0.96-0.37-1.8-0.56-2.54-0.56c-0.69,0-1.45,0.15-2.28,0.44l-0.59,0.21l-0.74,0.3c-0.58,0.23-1.17,0.35-1.77,0.35
		c-1.4,0-2.94-1.15-4.64-3.46c-2.44-3.3-3.65-6.9-3.65-10.8c0-2.77,0.76-5,2.28-6.69c1.52-1.69,3.53-2.54,6.04-2.54
		c0.94,0,1.81,0.17,2.63,0.51l0.56,0.23l0.59,0.24c0.52,0.22,0.95,0.33,1.27,0.33c0.41,0,0.87-0.1,1.37-0.29l0.77-0.3l0.57-0.21
		c0.92-0.33,1.93-0.5,3.04-0.5C23.11,8.4,25.23,9.4,26.83,11.4"/>
	</symbol>
	<symbol id="icon-search" viewBox="0 0 32 32">
		<path class="path1" d="M19.427 20.427c-1.39 0.99-3.090 1.573-4.927 1.573-4.694 0-8.5-3.806-8.5-8.5s3.806-8.5 8.5-8.5c4.694 0 8.5 3.806 8.5 8.5 0 1.837-0.583 3.537-1.573 4.927l5.585 5.585c0.55 0.55 0.546 1.431-0 1.976l-0.023 0.023c-0.544 0.544-1.431 0.546-1.976 0l-5.585-5.585zM14.5 20c3.59 0 6.5-2.91 6.5-6.5s-2.91-6.5-6.5-6.5c-3.59 0-6.5 2.91-6.5 6.5s2.91 6.5 6.5 6.5v0z"></path>
	</symbol>
	<symbol id="icon-alert" viewBox="0 0 32 32">
		<path class="path1" d="M31.433 25.008l-13.696-23.969c-0.356-0.623-1.019-1.008-1.736-1.008s-1.38 0.385-1.736 1.008l-13.696 23.969c-0.354 0.619-0.351 1.38 0.007 1.996s1.017 0.996 1.73 0.996h27.393c0.713 0 1.372-0.38 1.73-0.996s0.36-1.377 0.007-1.996zM18 24h-4v-4h4v4zM18 18h-4v-8h4v8z"></path>
	</symbol>
	<symbol id="icon-burger" viewBox="0 0 24 24">
		<path class="path1" d="M3 5h18q0.414 0 0.707 0.293t0.293 0.707-0.293 0.707-0.707 0.293h-18q-0.414 0-0.707-0.293t-0.293-0.707 0.293-0.707 0.707-0.293zM3 17h18q0.414 0 0.707 0.293t0.293 0.707-0.293 0.707-0.707 0.293h-18q-0.414 0-0.707-0.293t-0.293-0.707 0.293-0.707 0.707-0.293zM3 11h18q0.414 0 0.707 0.293t0.293 0.707-0.293 0.707-0.707 0.293h-18q-0.414 0-0.707-0.293t-0.293-0.707 0.293-0.707 0.707-0.293z"></path>
	</symbol>

	<symbol id="icon-lock" viewBox="0 0 768 768">
	<path d="M576 320v-64c0-105.9-86.1-192-192-192s-192 86.1-192 192v64c-35.3 0-64 28.7-64 64v256c0 35.3 28.7 64 64 64h384c35.3 0 64-28.7 64-64v-256c0-35.3-28.7-64-64-64zM256 256c0-70.6 57.4-128 128-128s128 57.4 128 128v64h-256v-64zM576 640h-384v-256h384v256c0.1 0 0 0 0 0z"></path></symbol>

	<symbol id="icon-unlock" viewBox="0 0 768 768"><path  d="M576 384h-320v-192c0-70.6 57.4-128 128-128s128 57.4 128 128v64h64v-64c0-105.9-86.1-192-192-192s-192 86.1-192 192v192c-35.3 0-64 28.7-64 64v256c0 35.3 28.7 64 64 64h384c35.3 0 64-28.7 64-64v-256c0-35.3-28.7-64-64-64zM576 704h-384v-256h384v256c0.1 0 0 0 0 0z"></path></symbol>


	<symbol id="icon-key" viewBox="0 0 512 512">
		<path d="M501.066 157.121l-50.553-50.552c-12.396-12.397-32.685-32.684-45.081-45.082l-50.553-50.552c-12.396-12.397-34.477-14.583-49.065-4.858l-138.219 92.146c-14.588 9.726-20.109 30.514-12.268 46.195l35.243 70.487c1.077 2.153 2.323 4.448 3.695 6.83l-178.265 178.265-16 112h96v-32h64v-64h64v-64h64v-35.593c3.198 1.906 6.267 3.608 9.096 5.022l70.485 35.244c15.683 7.841 36.47 2.319 46.195-12.269l92.147-138.22c9.727-14.586 7.539-36.665-4.857-49.063zM75.314 427.313l-22.627-22.627 155.786-155.785 22.627 22.627-155.786 155.785zM458.51 211.882l-22.628 22.628c-6.223 6.222-16.404 6.222-22.627 0l-135.765-135.765c-6.223-6.222-6.223-16.405 0-22.627l22.628-22.628c6.223-6.222 16.404-6.222 22.627 0l135.765 135.765c6.223 6.222 6.223 16.405 0 22.627z"></path>
	</symbol>
	<symbol id="icon-edit" viewBox="0 0 28 32">
		<path class="path1" d="M22 2l-4 4 6 6 4-4-6-6zM0 24l0.021 6.018 5.979-0.018 16-16-6-6-16 16zM6 28h-4v-4h2v2h2v2z"></path>
	</symbol>
	<symbol id="icon-delete" viewBox="0 0 32 32">
		<path class="path1" d="M6 32h20l2-22h-24zM20 4v-4h-8v4h-10v6l2-2h24l2 2v-6h-10zM18 4h-4v-2h4v2z"></path>
	</symbol>
	<symbol id="icon-school" viewBox="0 0 24 24">
		<path class="path1" d="M12 3l11.016 6v8.016h-2.016v-6.938l-9 4.922-11.016-6zM5.016 13.172l6.984 3.844 6.984-3.844v4.031l-6.984 3.797-6.984-3.797v-4.031z"></path>
	</symbol>
	<symbol id="icon-steering" viewBox="0 0 45 45">
		<path d="M22.509,3.925c-10.201,0-18.5,8.3-18.5,18.502c0,10.199,8.299,18.496,18.5,18.496s18.5-8.297,18.5-18.496
		C41.009,12.225,32.71,3.925,22.509,3.925z M22.509,6.925c5.595,0,10.491,2.989,13.217,7.445l-8.92,4.212
		c-1.108-1.354-2.799-2.222-4.709-2.222c-1.835,0-3.478,0.828-4.58,2.127l-8.335-3.936C11.884,9.995,16.838,6.925,22.509,6.925z
		 M7.009,22.427c0-1.811,0.328-3.541,0.9-5.157l8.296,3.916c-0.078,0.385-0.119,0.781-0.119,1.188c0.086,2.909,2.05,5.285,4.61,5.934
		v9.501C13.002,36.906,7.009,30.357,7.009,22.427z M23.696,37.862v-9.591c2.583-0.697,4.464-3.041,4.464-5.898
		c0-0.364-0.038-0.719-0.101-1.065l8.976-4.237c0.619,1.672,0.974,3.472,0.974,5.356C38.009,30.571,31.688,37.253,23.696,37.862z"/>
	</symbol>

	<symbol id="icon-bulb" viewBox="0 0 45 45">
		<path d="M22.068,6.564V3.399c0-0.359,0.291-0.65,0.65-0.65s0.65,0.291,0.65,0.65v3.165c0,0.359-0.291,0.65-0.65,0.65
			S22.068,6.924,22.068,6.564z M38.948,12.79c-0.16-0.32-0.547-0.45-0.871-0.292l-2.832,1.413c-0.322,0.161-0.453,0.551-0.293,0.872
			c0.115,0.229,0.344,0.36,0.584,0.36c0.096,0,0.195-0.022,0.289-0.068l2.832-1.413C38.977,13.501,39.108,13.111,38.948,12.79z
			 M28.094,8.299c0.084,0.035,0.172,0.053,0.258,0.053c0.252,0,0.49-0.147,0.598-0.394l1.25-2.909c0.141-0.33-0.012-0.712-0.342-0.854
			c-0.33-0.138-0.711,0.012-0.854,0.341l-1.25,2.909C27.612,7.774,27.764,8.156,28.094,8.299z M32.809,11.342
			c0.166,0,0.332-0.063,0.459-0.191l2.238-2.24c0.254-0.254,0.252-0.665-0.002-0.919s-0.664-0.255-0.918,0.001l-2.238,2.24
			c-0.254,0.254-0.252,0.665,0.002,0.919C32.477,11.278,32.643,11.342,32.809,11.342z M39.989,18.007l-3.141,0.385
			c-0.357,0.044-0.609,0.368-0.566,0.725c0.041,0.329,0.32,0.571,0.645,0.571c0.025,0,0.053-0.002,0.08-0.005l3.141-0.385
			c0.357-0.044,0.609-0.368,0.566-0.725C40.67,18.218,40.352,17.973,39.989,18.007z M10.104,13.911l-2.832-1.413
			C6.951,12.339,6.562,12.469,6.4,12.79c-0.16,0.321-0.029,0.711,0.292,0.872l2.832,1.413c0.093,0.046,0.192,0.068,0.289,0.068
			c0.239,0,0.469-0.132,0.583-0.36C10.557,14.462,10.426,14.072,10.104,13.911z M16.399,7.958c0.106,0.246,0.346,0.394,0.598,0.394
			c0.086,0,0.173-0.018,0.257-0.053c0.33-0.143,0.482-0.524,0.341-0.854l-1.25-2.909c-0.143-0.329-0.522-0.479-0.854-0.341
			c-0.33,0.143-0.482,0.524-0.341,0.854L16.399,7.958z M12.08,11.15c0.127,0.128,0.293,0.191,0.46,0.191
			c0.166,0,0.332-0.063,0.459-0.19c0.254-0.254,0.255-0.665,0.001-0.919l-2.237-2.24c-0.254-0.255-0.665-0.256-0.919-0.001
			C9.59,8.245,9.589,8.656,9.843,8.91L12.08,11.15z M8.501,18.392l-3.142-0.385c-0.361-0.033-0.68,0.211-0.725,0.566
			c-0.043,0.356,0.21,0.681,0.566,0.725l3.142,0.385c0.027,0.003,0.054,0.005,0.08,0.005c0.323,0,0.604-0.242,0.645-0.571
			C9.11,18.76,8.857,18.436,8.501,18.392z M34.397,20.816c0.01,2.782-1.324,5.701-3.965,8.674c-0.076,0.085-0.133,0.147-0.162,0.187
			c0.006,0.044,0.002,0.11,0.002,0.155c0.016,1.455-0.059,6.313-1.691,7.743c-0.398,0.397-0.834,1.874-0.988,2.733
			c-0.23,0.938-0.988,1.875-2.138,1.875h-5.323c-1.15,0-1.907-0.938-2.125-1.81c-0.168-0.925-0.603-2.401-1.046-2.841
			c-1.589-1.388-1.663-6.246-1.647-7.701c0.001-0.045,0.004-0.09,0.011-0.134c-0.038-0.061-0.095-0.123-0.17-0.208
			c-2.641-2.973-3.976-5.892-3.966-8.677c0-6.395,5.198-11.602,11.593-11.615c0.008,0,0.018,0,0.025,0
			C29.198,9.212,34.397,14.419,34.397,20.816z M28.151,32.601H17.433c0.18,1.822,0.535,3.16,0.889,3.469
			c1.098,1.084,1.559,3.429,1.64,3.889c0.019,0.048,0.115,0.201,0.164,0.227l5.329-0.001c0.072-0.033,0.168-0.229,0.184-0.292
			c0.068-0.394,0.529-2.738,1.582-3.78C27.604,35.773,27.969,34.427,28.151,32.601z M24.851,21.639c0-1.096-0.89-1.987-1.986-1.987
			c-1.096,0-1.988,0.892-1.988,1.987s0.892,1.987,1.988,1.987C23.961,23.626,24.851,22.734,24.851,21.639z M32.397,20.819
			c0-5.302-4.309-9.614-9.604-9.621c-5.297,0.007-9.605,4.319-9.605,9.618c-0.008,2.282,1.156,4.752,3.461,7.346
			c0.149,0.169,0.248,0.286,0.288,0.343c0.392,0.562,0.395,1.15,0.375,1.392c-0.002,0.24,0.005,0.471,0.009,0.704h4.894v-5.739
			c-1.502-0.304-2.638-1.633-2.638-3.223c0-1.812,1.476-3.288,3.289-3.288c1.812,0,3.286,1.476,3.286,3.288
			c0,1.59-1.134,2.919-2.636,3.223v5.739h4.749c0.004-0.233,0.012-0.464,0.01-0.704c-0.02-0.241-0.018-0.829,0.373-1.389
			c0.041-0.06,0.141-0.177,0.289-0.346C31.241,25.568,32.405,23.099,32.397,20.819z"/>
	</symbol>

	<symbol id="icon-download" viewBox="0 0 32 32">
		<path d="M15 27.25l-3.25-3.25-0.75 0.75 4.5 4.5 4.5-4.5-0.75-0.75-3.25 3.25v-11.25h-1v11.25zM14 22h-6.997c-2.205 0-4.003-1.791-4.003-4 0-1.895 1.325-3.488 3.101-3.898v0c-0.066-0.357-0.101-0.726-0.101-1.102 0-3.314 2.686-6 6-6 2.615 0 4.84 1.673 5.661 4.008 0.774-0.63 1.762-1.008 2.839-1.008 2.358 0 4.293 1.814 4.484 4.123v0c1.73 0.44 3.016 2.009 3.016 3.877 0 2.205-1.792 4-4.003 4h-6.997v1h7.001c2.761 0 4.999-2.244 4.999-5 0-2.096-1.287-3.892-3.117-4.634v0c-0.523-2.493-2.734-4.366-5.383-4.366-0.863 0-1.679 0.199-2.406 0.553-1.203-2.121-3.481-3.553-6.094-3.553-3.866 0-7 3.134-7 7 0 0.138 0.004 0.275 0.012 0.412v0c-1.772 0.77-3.012 2.538-3.012 4.588 0 2.761 2.232 5 4.999 5h7.001v-1z"></path>
	</symbol>

	
	<symbol id="icon-belt" viewBox="0 0 45 45">
	    <path fill="#7D2D30" d="M41.129,7.369c-0.1-0.072-2.473-1.752-5.43-1.752c-2.104,0-3.941,0.834-5.48,2.462c-0.738-0.456-1.582-0.704-2.446-0.704
	    	c-2.588,0-4.696,2.108-4.696,4.697c0,1.939,1.181,3.596,2.859,4.314c-1.171,0.53-2.11,1.217-2.861,1.971l-11.332,5.196
	    	c-0.307,0.14-0.482,0.443-0.475,0.761c-0.184,0.35-0.264,0.74-0.244,1.119c0.014,0.266,0.08,0.532,0.184,0.79
	    	c-2.908,0.196-5.321,1.567-6.646,3.946c-1.544,2.767-1.322,6.267,0.593,9.361l0.239,0.387h23.797l12.453-32.18L41.129,7.369z
	    	 M24.708,12.072c0-1.689,1.375-3.065,3.065-3.065c0.517,0,1.024,0.138,1.478,0.393c-0.012,0.021-0.018,0.047-0.027,0.068
	    	c-0.15,0.29-0.279,0.601-0.393,0.929c-0.021,0.062-0.041,0.122-0.062,0.184c-0.271,0.846-0.447,1.783-0.552,2.749
	    	c-0.002,0.011-0.002,0.021-0.004,0.031c-0.062,0.585-0.105,1.176-0.129,1.761c-0.105,0.014-0.209,0.021-0.31,0.021
	    	C26.082,15.143,24.708,13.767,24.708,12.072z M21.409,20.886c-0.561,1.14-0.877,2.214-1.043,2.998
	    	c-1.26-0.43-2.791-0.617-3.982-0.695L21.409,20.886z M13.289,24.79c0.533-0.061,1.168-0.093,1.834-0.093
	    	c2.319,0,4.407,0.363,5.321,0.927l1.165,0.717l0.078-1.366c0.01-0.166,0.215-2.993,2.317-5.246l3.672-1.685
	    	c0.31,0.85,0.562,2.602,0.162,4.797c-0.179,0.988-0.496,1.983-0.847,2.835c-0.298,0.577-0.652,1.121-1.103,1.577
	    	c-0.822,0.835-1.856,1.286-3.07,1.396c-1.027-0.025-1.833-0.275-1.839-0.275c-0.527-0.211-5.152-2.05-7.26-2.079
	    	c-0.693-0.011-1.045-0.568-1.062-0.943C12.648,25.231,12.629,24.866,13.289,24.79z M28.069,38.287H6.313
	    	c-1.388-2.483-1.516-5.191-0.328-7.323c1.804-3.237,6.198-4.112,10.919-1.984c2.244,1.01,4.249,1.436,5.982,1.303
	    	c0.027,0,0.051,0.002,0.076,0.002c1.45,0,2.693-0.375,3.695-1.117c0.66-0.487,1.292-1.554,1.805-2.78
	    	c1.391-2.738,1.371-5.898,1.371-5.94c-0.004-0.211-0.02-0.529-0.043-0.93c-0.029-0.586-0.072-1.438-0.088-2.403l5.203-2.386
	    	c0.412-0.188,0.592-0.672,0.402-1.083c-0.189-0.408-0.672-0.589-1.08-0.399l-4.508,2.064c0.008-0.194,0.014-0.391,0.021-0.571
	    	c0.008-0.124,0.014-0.248,0.021-0.372c0.023-0.327,0.051-0.64,0.084-0.927c0.006-0.052,0.014-0.102,0.02-0.153
	    	C30.115,11.28,30.59,10.222,31,9.673l0.146-0.198C32.422,8,33.953,7.249,35.699,7.249c1.684,0,3.186,0.694,3.947,1.12L28.069,38.287
	    	z"/>
	</symbol>

	<symbol id="icon-card" viewBox="0 0 45 45">
        <path fill="#FF5C00" d="M38.515,10.566H6.494c-1.684,0-3.054,1.37-3.054,3.054v20.424c0,1.684,1.37,3.054,3.054,3.054h32.021
        	c1.684,0,3.054-1.37,3.054-3.054V13.62C41.568,11.937,40.198,10.566,38.515,10.566z M6.494,11.867h32.021
        	c0.967,0,1.753,0.786,1.753,1.753v2.002H4.741V13.62C4.741,12.653,5.527,11.867,6.494,11.867z M38.515,35.797H6.494
        	c-0.967,0-1.753-0.786-1.753-1.753V22.622h35.526v11.422C40.268,35.011,39.481,35.797,38.515,35.797z M24.247,26.187H8.762
        	c-0.623,0-1.131,0.508-1.131,1.131v3.843c0,0.623,0.508,1.131,1.131,1.131h15.485c0.623,0,1.131-0.508,1.131-1.131v-3.843
        	C25.378,26.694,24.87,26.187,24.247,26.187z M24.077,30.99H8.932v-3.503h15.146V30.99z"/>
	</symbol>

	<symbol id="icon-flag" viewBox="0 0 45 45">
	   <path fill="#FF5C00" d="M35.928,7.214c-0.234-0.131-0.523-0.126-0.754,0.017c-0.133,0.083-0.275,0.179-0.428,0.279
	   	c-1.592,1.062-4.254,2.84-11.669-1.654c-5.569-3.374-9.362-2.837-12.206-1.79v38.271h2.1v-23.8c2.475-0.192,5.877,0.228,9.334,2.322
	   	c3.932,2.381,6.73,3.126,8.775,3.125c2.236,0,3.572-0.891,4.492-1.505c0.137-0.092,0.264-0.177,0.385-0.25
	   	c0.219-0.137,0.354-0.376,0.354-0.634V7.863C36.311,7.595,36.165,7.346,35.928,7.214z M34.823,21.191
	   	c-0.025,0.016-0.051,0.033-0.076,0.049c-1.592,1.063-4.256,2.838-11.669-1.653c-3.883-2.354-7.459-2.769-10.106-2.513V4.906
	   	c2.393-0.394,5.509-0.097,9.334,2.221c7.187,4.354,10.595,3.237,12.517,2.101V21.191z"/>
	</symbol>

	<symbol id="icon-medal" viewBox="0 0 45 45">
	    <path d="M38.247,15.571C35.501,9.183,29.233,5.056,22.279,5.056c-2.358,0-4.661,0.476-6.846,1.413
	    	c-4.263,1.831-7.558,5.213-9.275,9.522C4.439,20.3,4.502,25.021,6.334,29.282c2.743,6.389,9.009,10.517,15.963,10.517
	    	c2.359,0,4.663-0.477,6.848-1.415C37.942,34.602,42.025,24.368,38.247,15.571z M28.355,36.546c-1.935,0.831-3.973,1.253-6.059,1.253
	    	c-6.154,0-11.698-3.652-14.125-9.306c-1.621-3.771-1.677-7.948-0.156-11.761c1.521-3.813,4.436-6.806,8.207-8.426
	    	c1.934-0.83,3.972-1.251,6.057-1.251c6.154,0,11.7,3.652,14.13,9.305C39.753,24.145,36.14,33.199,28.355,36.546z M30.782,24.313
	    	h-16.98c-0.641,0-1.162,0.535-1.162,1.193v4.342c0,0.658,0.521,1.193,1.162,1.193h16.98c0.639,0,1.158-0.535,1.158-1.193v-4.342
	    	C31.94,24.849,31.421,24.313,30.782,24.313z M30.64,29.741H13.94v-4.127H30.64V29.741z M20.389,20.392V18.9
	    	c0-0.332,0.073-0.479,0.166-0.663l4.033-7.698c0.147-0.295,0.312-0.369,0.589-0.369h1.842c0.185,0,0.276,0.074,0.276,0.203
	    	c0,0.055-0.019,0.11-0.056,0.184l-4.217,7.957h2.67v-3.739c0-0.258,0.11-0.368,0.368-0.368h1.658c0.258,0,0.368,0.11,0.368,0.368
	    	v3.739h1.731c0.258,0,0.368,0.11,0.368,0.368v1.51c0,0.258-0.11,0.369-0.368,0.369h-1.731v1.934c0,0.258-0.11,0.368-0.368,0.368
	    	h-1.658c-0.258,0-0.368-0.11-0.368-0.368v-1.934h-4.936C20.499,20.761,20.389,20.649,20.389,20.392z M13.519,18.238
	    	c0-0.948,0.77-1.718,1.72-1.718c0.948,0,1.718,0.77,1.718,1.718c0,0.949-0.77,1.719-1.718,1.719
	    	C14.288,19.957,13.519,19.188,13.519,18.238z M17.682,22.015h-4.698v-1.301h4.698V22.015z"/>
	</symbol>

	<symbol id="icon-navi" viewBox="0 0 32 33">
	    <g id="Page-1" stroke="none" stroke-width="1" fill="none" fill-rule="evenodd">
	        <polygon id="Navi" stroke="#7D2D30" stroke-width="1.3" points="16.357 6.9384 25.855 26.3604 16.499 21.6834 7 26.5024"></polygon>
	    </g>
	</symbol>

	<symbol id="icon-person" viewBox="0 0 32 33">
	        <polygon id="path-1" points="5.09227952e-16 13 24 13 24 0 3.81920964e-16 0 0 13"></polygon>
	    
	    <g id="Page-1" stroke="none" stroke-width="1" fill="none" fill-rule="evenodd">
	        <g id="person" transform="translate(4.000000, 5.000000)">
	            <g id="Group-3" transform="translate(0.000000, 9.564000)">
	                <mask id="mask-2" fill="white">
	                    <use xlink:href="#path-1"></use>
	                </mask>
	                <g id="Clip-2"></g>
	                <path d="M22.5801,12.9385 C22.5801,7.0825 17.8741,2.2105 12.1071,2.2105 C6.3411,2.2105 1.6501,7.1455 1.6501,13.0005" id="Stroke-1" stroke="#FF5C00" stroke-width="1.3" mask="url(#mask-2)"></path>
	            </g>
	            <path d="M17.3779,5.9893 C17.3779,8.9383 15.0049,11.3283 12.0769,11.3283 C9.1489,11.3283 6.7759,8.9383 6.7759,5.9893 C6.7759,3.0403 9.1489,0.6503 12.0769,0.6503 C15.0049,0.6503 17.3779,3.0403 17.3779,5.9893 L17.3779,5.9893 Z" id="Stroke-4" stroke="#FF5C00" stroke-width="1.3"></path>
	        </g>
	    </g>
	</symbol>

	<symbol id="icon-shield" viewBox="0 0 45 45">
	    <path fill="#FF5C00" d="M39.448,10.047c-7.084,0-15.204-5.48-15.284-5.536l-0.539-0.365L23.09,4.513c-0.08,0.056-8.143,5.534-15.225,5.534H6.871
	    	l0.045,0.994c0.039,0.858,1.133,21.148,16.223,30.219l0.227,0.137h0.582l0.227-0.137c15.091-9.07,16.185-29.36,16.224-30.219
	    	l0.045-0.994H39.448z M23.656,39.348C11.648,31.771,9.305,15.966,8.895,11.914c6.348-0.395,12.844-4.268,14.734-5.482
	    	c1.903,1.213,8.438,5.088,14.79,5.482C38.011,15.966,35.665,31.771,23.656,39.348z M22.35,22.777l7.284-7.204l2.004,2.026
	    	l-8.265,8.174c-0.277,0.275-0.641,0.412-1.002,0.412c-0.352,0-0.705-0.13-0.98-0.391l-4.248-4.024l1.959-2.069L22.35,22.777z"/>
	</symbol>

	<symbol id="icon-snowflake" viewBox="0 0 32 33">
	    <g id="Page-1" stroke="none" stroke-width="1" fill="none" fill-rule="evenodd">
	        <g id="snowflake" transform="translate(3.000000, 5.000000)" stroke="#7D2D30" stroke-width="1.3">
	            <g id="Group-13" transform="translate(0.000000, 0.102100)">
	                <path d="M0,10.7578 L25,10.7578" id="Stroke-1"></path>
	                <path d="M6.1309,0.3965 L18.3929,21.6345" id="Stroke-3"></path>
	                <path d="M18.3926,0.3965 L6.1306,21.6345" id="Stroke-5"></path>
	                <polyline id="Stroke-7" points="13.5249 0.5376 15.9589 4.6066 20.5099 4.5506"></polyline>
	                <polyline id="Stroke-9" points="3.7402 4.3486 8.3392 4.2056 10.6612 0.2256"></polyline>
	                <polyline id="Stroke-11" points="2.5669 15.0522 4.7749 11.0162 2.5209 6.9962"></polyline>
	            </g>
	            <polyline id="Stroke-14" points="22.3403 7.356 19.8783 11.155 21.9473 15.402"></polyline>
	            <g id="Group-19" transform="translate(3.000000, 17.102100)">
	                <polyline id="Stroke-15" points="17.3911 0.3545 12.9581 0.4065 10.4461 4.4375"></polyline>
	                <polyline id="Stroke-17" points="7.6377 4.6895 5.4397 0.6475 0.8407 0.3655"></polyline>
	            </g>
	        </g>
	    </g>
	</symbol>

	<symbol id="icon-clock" viewBox="0 0 24 24">
		<path class="path1" d="M12 1q2.242 0 4.277 0.871t3.508 2.344 2.344 3.508 0.871 4.277-0.871 4.277-2.344 3.508-3.508 2.344-4.277 0.871-4.277-0.871-3.508-2.344-2.344-3.508-0.871-4.277 0.871-4.277 2.344-3.508 3.508-2.344 4.277-0.871zM12 3q-1.828 0-3.496 0.715t-2.871 1.918-1.918 2.871-0.715 3.496 0.715 3.496 1.918 2.871 2.871 1.918 3.496 0.715 3.496-0.715 2.871-1.918 1.918-2.871 0.715-3.496-0.715-3.496-1.918-2.871-2.871-1.918-3.496-0.715zM12 5q0.414 0 0.707 0.293t0.293 0.707v5.586l2.711 2.703q0.289 0.289 0.289 0.711t-0.289 0.711-0.711 0.289-0.711-0.289l-3-3q-0.289-0.289-0.289-0.711v-6q0-0.414 0.293-0.707t0.707-0.293z"></path>
	</symbol>

	<symbol id="icon-speed" viewBox="0 0 45 45">
	   <path fill="#FF5C00" d="M28.232,27.719H16.932c-0.359,0-0.65,0.291-0.65,0.65v5.649c0,0.359,0.291,0.65,0.65,0.65h11.301
	   	c0.359,0,0.65-0.291,0.65-0.65v-5.649C28.883,28.01,28.592,27.719,28.232,27.719z M23.814,29.02v4.349H21.21V29.02H23.814z
	   	 M17.582,29.02h2.327v4.349h-2.327V29.02z M27.582,33.368h-2.467V29.02h2.467V33.368z M29.389,16.287
	   	c0.248,0.26,0.239,0.671-0.021,0.919l-4.377,4.182c0.233,0.399,0.377,0.859,0.377,1.355c0,1.492-1.211,2.704-2.702,2.704
	   	c-1.494,0-2.704-1.212-2.704-2.704s1.21-2.705,2.704-2.705c0.523,0,1.008,0.156,1.422,0.414l4.382-4.186
	   	C28.729,16.019,29.142,16.026,29.389,16.287z M39.658,15.44C36.734,8.638,30.06,4.242,22.654,4.242
	   	c-2.512,0-4.965,0.507-7.291,1.506c-4.54,1.95-8.048,5.551-9.879,10.141c-1.83,4.589-1.764,9.616,0.188,14.154
	   	c2.92,6.804,9.594,11.201,17,11.201c2.513,0,4.966-0.507,7.293-1.507C39.335,35.707,43.684,24.808,39.658,15.44z M28.781,36.981
	   	c-1.95,0.838-4.005,1.263-6.108,1.263c-6.206,0-11.797-3.684-14.244-9.386c-1.603-3.727-1.678-7.844-0.237-11.626l2.58,1.108
	   	c0.084,0.036,0.171,0.054,0.257,0.054c0.252,0,0.491-0.147,0.597-0.394c0.143-0.33-0.01-0.712-0.34-0.854L8.709,16.04
	   	c0.688-1.437,1.575-2.741,2.641-3.881l1.976,2.009c0.128,0.129,0.296,0.194,0.464,0.194c0.164,0,0.329-0.062,0.456-0.187
	   	c0.256-0.252,0.259-0.664,0.008-0.92l-1.972-2.006c1.155-1.042,2.471-1.913,3.922-2.578l1.064,2.597
	   	c0.104,0.252,0.346,0.404,0.602,0.404c0.082,0,0.166-0.016,0.246-0.049c0.333-0.136,0.491-0.516,0.355-0.848l-1.062-2.593
	   	c1.489-0.539,3.03-0.844,4.604-0.909v2.806c0,0.359,0.291,0.65,0.65,0.65s0.65-0.291,0.65-0.65V7.267
	   	c1.6,0.067,3.15,0.377,4.61,0.904l-1.065,2.605c-0.136,0.332,0.023,0.712,0.355,0.848c0.081,0.033,0.164,0.049,0.246,0.049
	   	c0.256,0,0.499-0.152,0.602-0.404l1.067-2.609c1.432,0.658,2.754,1.53,3.923,2.586l-1.977,2.011
	   	c-0.251,0.256-0.248,0.668,0.008,0.92c0.127,0.124,0.292,0.187,0.456,0.187c0.168,0,0.336-0.065,0.464-0.194l1.974-2.008
	   	c1.06,1.134,1.954,2.436,2.646,3.877l-2.582,1.109c-0.329,0.143-0.482,0.524-0.341,0.854c0.106,0.246,0.346,0.394,0.598,0.394
	   	c0.086,0,0.173-0.018,0.257-0.053l2.574-1.106C40.064,24.941,36.429,33.691,28.781,36.981z"/>
	</symbol>

	<symbol id="icon-star" viewBox="0 0 32 33">
	    <g id="Page-1" stroke="none" stroke-width="1" fill="none" fill-rule="evenodd">
	        <polygon id="star" stroke="#FF5C00" stroke-width="1.3" points="4 13.6926059 12.1258676 12.5321642 15.8015248 5.56673831 18.8969612 12.3387573 27.2153103 13.305792 21.4112513 18.723037 22.9594322 27.2347931 15.6081178 22.7855081 8.44928496 27.4282 9.80405891 18.5296301"></polygon>
	    </g>
	</symbol>

	<symbol id="icon-suitcase" viewBox="0 0 32 33">
	        <polygon id="path-1" points="0 22.0508 26.3 22.0508 26.3 -0.0002 0 -0.0002"></polygon>
	    
	    <g id="Page-1" stroke="none" stroke-width="1" fill="none" fill-rule="evenodd">
	        <g id="suitcase" transform="translate(3.000000, 5.000000)">
	            <path d="M9.6499,4.3169 L9.6499,1.4479 C9.6499,0.8199 10.0139,0.6499 10.7849,0.6499 L14.9909,0.6499 C15.7629,0.6499 16.6499,0.8199 16.6499,1.4479 L16.6499,4.3169 L9.6499,4.3169 L9.6499,4.3169 Z" id="Stroke-1" stroke="#FF5C00" stroke-width="1.3"></path>
	            <mask id="mask-2" fill="white">
	                <use xlink:href="#path-1"></use>
	            </mask>
	            <g id="Clip-4"></g>
	            <polygon id="Stroke-3" stroke="#FF5C00" stroke-width="1.3" mask="url(#mask-2)" points="0.65 21.4008 25.65 21.4008 25.65 4.4008 0.65 4.4008"></polygon>
	            <polygon id="Stroke-5" stroke="#FF5C00" stroke-width="1.3" mask="url(#mask-2)" points="18.65 21.4008 20.65 21.4008 20.65 4.4008 18.65 4.4008"></polygon>
	            <polygon id="Stroke-6" stroke="#FF5C00" stroke-width="1.3" mask="url(#mask-2)" points="5.733 21.4008 7.733 21.4008 7.733 4.4008 5.733 4.4008"></polygon>
	        </g>
	    </g>
	</symbol>

	<symbol id="icon-leaf" viewBox="0 0 28 28">
		<path d="M24.883,5.178 C24.788,5.065 24.648,5 24.501,5 L23.991,5 C18.951,4.998 14.97,4.997 12.039,5.698 C10.464,6.075 9.246,6.644 8.316,7.437 C7.312,8.293 6.628,9.414 6.223,10.866 C5.954,11.83 5.828,13.571 6.359,15.303 C6.555,15.943 6.861,16.547 7.269,17.102 C6.053,19.007 5.002,21.516 5.002,24.501 C5.002,24.777 5.226,25.001 5.502,25.001 C5.778,25.001 6.002,24.777 6.002,24.501 C6.002,19.896 8.73,16.48 10.356,14.855 C11.523,13.688 12.842,12.703 14.172,12.007 C15.41,11.359 16.593,11.002 17.503,11.002 C17.779,11.002 18.003,10.778 18.003,10.502 C18.003,10.226 17.779,10.002 17.503,10.002 C16.419,10.002 15.107,10.389 13.709,11.122 C12.291,11.865 10.887,12.911 9.65,14.149 C9.128,14.671 8.5,15.367 7.876,16.219 C7.634,15.838 7.446,15.434 7.317,15.012 C6.817,13.38 7.001,11.808 7.188,11.137 C8.618,6.012 14.05,5.999 23.905,6.002 C22.73,12.29 20.539,16.36 17.389,18.103 C14.467,19.72 11.569,18.838 10.458,18.383 C10.224,18.287 9.988,18.169 9.759,18.033 C9.522,17.892 9.215,17.97 9.074,18.207 C8.933,18.444 9.011,18.751 9.248,18.892 C9.52,19.054 9.8,19.194 10.08,19.309 C10.702,19.563 11.704,19.889 12.945,19.996 C13.219,20.02 13.49,20.031 13.759,20.031 C15.228,20.031 16.608,19.678 17.874,18.978 C19.483,18.088 20.875,16.639 22.013,14.674 C23.347,12.369 24.351,9.312 24.996,5.588 C25.021,5.443 24.981,5.294 24.886,5.181 L24.883,5.178 Z" fill="#FF5C00" fill-rule="nonzero"></path>
	</symbol>


	<symbol id="icon-home" viewBox="0 0 32 32">
		<path d="M32 19l-6-6v-9h-4v5l-6-6-16 16v1h4v10h10v-6h4v6h10v-10h4z"></path>
	</symbol>

	<symbol id="icon-wheel" viewBox="0 0 45 45">
	    <path d="M22.68,11.231c-5.897,0-10.696,4.798-10.696,10.695c0,5.898,4.799,10.697,10.696,10.697c5.898,0,10.698-4.799,10.698-10.697
	    	C33.378,16.029,28.578,11.231,22.68,11.231z M22.68,30.829c-4.907,0-8.899-3.994-8.899-8.902c0-4.907,3.992-8.9,8.899-8.9
	    	c4.908,0,8.9,3.993,8.9,8.9C31.58,26.835,27.588,30.829,22.68,30.829z M22.03,18.097v-1.382c0-0.382,0.31-0.69,0.69-0.69
	    	c0.382,0,0.691,0.309,0.691,0.69v1.382c0,0.381-0.31,0.69-0.691,0.69C22.34,18.787,22.03,18.478,22.03,18.097z M20.047,20.043
	    	c-0.238,0.299-0.673,0.347-0.971,0.109l-1.082-0.86c-0.298-0.239-0.347-0.673-0.109-0.971c0.24-0.299,0.674-0.347,0.973-0.109
	    	l1.079,0.859C20.235,19.312,20.284,19.745,20.047,20.043z M19.361,22.917c0.085,0.373-0.147,0.742-0.521,0.826l-1.347,0.309
	    	c-0.372,0.085-0.742-0.147-0.827-0.519c-0.085-0.374,0.147-0.743,0.521-0.828l1.347-0.307
	    	C18.905,22.312,19.276,22.545,19.361,22.917z M21.505,26.168l-0.601,1.244c-0.165,0.344-0.578,0.488-0.923,0.323
	    	c-0.344-0.167-0.487-0.578-0.321-0.923l0.599-1.243c0.166-0.345,0.579-0.488,0.921-0.325C21.524,25.41,21.668,25.824,21.505,26.168z
	    	 M25.657,26.841c0.166,0.344,0.021,0.757-0.322,0.924c-0.344,0.163-0.757,0.019-0.922-0.324l-0.601-1.245
	    	c-0.165-0.344-0.02-0.757,0.323-0.921c0.344-0.166,0.756-0.021,0.922,0.322L25.657,26.841z M28.694,23.596
	    	c-0.085,0.372-0.456,0.604-0.827,0.521l-1.348-0.309c-0.372-0.084-0.604-0.456-0.521-0.826c0.086-0.373,0.457-0.606,0.828-0.521
	    	l1.347,0.308C28.546,22.854,28.778,23.225,28.694,23.596z M26.341,20.204c-0.298,0.237-0.732,0.189-0.971-0.109
	    	c-0.237-0.299-0.189-0.732,0.109-0.972l1.08-0.86c0.298-0.237,0.732-0.188,0.971,0.109s0.19,0.732-0.108,0.972L26.341,20.204z
	    	 M22.741,23.922c-0.985,0-1.784-0.799-1.784-1.783s0.799-1.783,1.784-1.783s1.784,0.799,1.784,1.783S23.727,23.922,22.741,23.922z
	    	 M39.674,14.626C36.75,7.823,30.075,3.428,22.67,3.428c-2.512,0-4.965,0.507-7.291,1.506c-4.54,1.95-8.048,5.551-9.879,10.141
	    	c-1.83,4.589-1.764,9.616,0.188,14.154c2.92,6.804,9.594,11.201,17,11.201c2.513,0,4.966-0.507,7.293-1.507
	    	C39.351,34.893,43.699,23.993,39.674,14.626z M28.797,36.167c-1.95,0.838-4.005,1.263-6.108,1.263
	    	c-6.206,0-11.797-3.684-14.244-9.386c-1.635-3.802-1.69-8.014-0.157-11.858s4.473-6.862,8.275-8.496
	    	c1.95-0.837,4.005-1.262,6.107-1.262c6.205,0,11.798,3.684,14.248,9.383C40.29,23.658,36.646,32.79,28.797,36.167z"/>
	</symbol>

	<symbol id="icon-flinkster" viewBox="0 0 115 48">
	    
	            <g id="flinkster" fill-rule="nonzero">
	                <polyline id="Shape" points="3.849 27.721 17.195 27.721 16.458 31.433 7.942 31.433 6.96 36.4 14.057 36.4 13.401 39.866 6.305 39.866 4.804 47.563 0 47.563 3.849 27.721"></polyline>
	                <path d="M21.822,47.7 C18.083,47.563 16.773,46.635 16.773,44.206 C16.773,43.715 16.801,43.387 16.965,42.596 L19.83,27.83 C21.55,27.802 22.724,27.475 23.324,26.929 L24.389,26.929 L21.304,42.732 C21.195,43.278 21.195,43.36 21.195,43.578 C21.195,44.233 21.577,44.534 22.45,44.561 L21.822,47.7" id="Shape"></path>
	                <path d="M27.383,33.534 C29.13,33.48 30.249,33.179 30.877,32.633 L31.914,32.879 L29.048,47.563 L24.681,47.563 L27.383,33.534 L27.383,33.534 Z" id="Path"></path>
	                <path d="M41.35,47.563 L43.097,38.501 C43.179,38.038 43.206,37.792 43.206,37.546 C43.206,36.728 42.797,36.291 41.978,36.291 C41.05,36.291 40.177,36.673 38.894,37.683 L36.956,47.563 L32.589,47.563 L35.291,33.534 C37.038,33.48 38.156,33.179 38.784,32.633 L39.849,32.879 L39.275,35.608 C41.377,33.561 43.069,32.688 44.898,32.688 C46.836,32.688 47.9,33.752 47.9,35.718 C47.9,36.154 47.846,36.673 47.682,37.437 L45.744,47.563 L41.35,47.563" id="Shape"></path>
	                <path d="M58.062,47.563 L55.986,41.722 L54.24,43.278 L53.394,47.563 L49.026,47.563 L52.848,27.857 C54.567,27.802 55.714,27.502 56.369,26.929 L57.406,26.929 L55.004,39.266 C57.434,37.301 59.316,35.199 60.6,33.043 L64.857,33.043 C63.356,35.608 61.691,37.601 59.59,39.32 L62.537,47.563 L58.062,47.563" id="Shape"></path>
	                <path d="M75.887,36.891 C74.249,36.018 73.185,35.718 71.711,35.718 C70.428,35.718 69.745,36.127 69.745,36.918 C69.745,37.546 70.128,37.874 71.492,38.447 C74.658,39.784 75.45,40.63 75.45,42.787 C75.45,46.117 73.349,47.945 69.445,47.945 C67.262,47.945 65.896,47.618 64.068,46.635 L64.669,43.496 C66.552,44.534 67.78,44.889 69.363,44.889 C70.782,44.889 71.492,44.424 71.492,43.523 C71.492,43.032 71.273,42.677 70.701,42.35 C70.346,42.131 70.264,42.104 68.763,41.477 C66.661,40.576 65.87,39.457 65.87,37.492 C65.87,34.38 67.999,32.606 71.738,32.606 C73.621,32.606 74.768,32.879 76.487,33.752 L75.887,36.891" id="Shape"></path>
	                <path d="M85.556,47.372 C84.737,47.7 83.754,47.863 82.663,47.863 C79.797,47.863 78.351,46.772 78.351,44.643 C78.351,44.151 78.404,43.633 78.541,42.95 L79.906,36.072 L78.104,36.072 L78.705,33.043 L78.95,33.043 C80.261,33.043 81.025,32.579 81.544,31.433 L82.335,29.768 L85.474,29.768 L84.846,33.043 L88.094,33.043 L87.494,36.072 L84.245,36.072 L82.99,42.568 C82.908,42.869 82.881,43.196 82.881,43.441 C82.881,44.206 83.372,44.561 84.409,44.561 C85.01,44.561 85.474,44.452 86.184,44.179 L85.556,47.372" id="Shape"></path>
	                <path d="M98.061,37.219 C98.061,36.182 97.461,35.608 96.396,35.608 C94.704,35.608 93.831,36.673 93.339,39.348 C97.078,39.102 98.061,38.665 98.061,37.219 Z M99.698,46.962 C97.679,47.754 96.478,48 94.704,48 C90.664,48 88.481,46.035 88.481,42.404 C88.481,39.593 89.409,36.81 90.883,35.145 C92.356,33.452 94.458,32.579 96.97,32.579 C100.217,32.579 102.183,34.135 102.183,36.728 C102.183,38.939 100.817,40.467 98.225,41.176 C96.724,41.586 95.714,41.695 92.957,41.804 C92.93,42.05 92.93,42.186 92.93,42.35 C92.93,44.015 93.776,44.67 95.878,44.67 C97.27,44.67 98.197,44.479 100.326,43.742 L99.698,46.962 L99.698,46.962 Z" id="Shape"></path>
	                <path d="M105.621,33.534 C107.368,33.48 108.487,33.179 109.115,32.633 L110.152,32.879 L109.524,35.991 C111.162,33.943 112.882,32.852 114.737,32.688 L113.946,36.7 C112.008,36.891 110.479,37.273 109.169,37.874 L107.286,47.563 L102.919,47.563 L105.621,33.534" id="Shape"></path>
	                <path d="M111.889,0.792 C113.447,0.792 114.737,2.024 114.737,3.617 L114.737,17.778 C114.737,19.371 113.447,20.634 111.889,20.634 L89.239,20.634 C87.681,20.634 86.391,19.371 86.391,17.778 L86.391,3.617 C86.391,2.024 87.681,0.792 89.239,0.792 L111.889,0.792 Z M112.668,17.778 L112.668,3.617 C112.668,3.166 112.338,2.805 111.889,2.805 L89.239,2.805 C88.79,2.805 88.46,3.166 88.46,3.617 L88.46,17.778 C88.46,18.23 88.79,18.591 89.239,18.591 L111.889,18.591 C112.338,18.591 112.668,18.23 112.668,17.778 Z" id="Combined-Shape"></path>
	                <path d="M97.13,10.923 C97.13,8.307 96.858,6.264 94.04,6.264 L93.409,6.264 L93.409,15.102 L94.519,15.102 C96.169,15.102 97.13,13.779 97.13,10.923 Z M95.06,17.207 L90.29,17.207 L90.29,4.218 L95.06,4.218 C98.419,4.218 100.274,6.323 100.274,10.652 C100.274,14.411 99.019,17.177 95.06,17.207 L95.06,17.207 Z" id="Shape"></path>
	                <path d="M106.009,15.102 L104.73,15.102 L104.73,11.764 L106.094,11.764 C107.714,11.764 108.109,12.71 108.109,13.433 C108.109,15.102 106.503,15.102 106.009,15.102 Z M104.73,6.227 L105.713,6.227 C107.11,6.227 107.665,6.714 107.665,7.789 C107.665,8.644 107.054,9.36 105.968,9.36 L104.73,9.36 L104.73,6.227 Z M108.514,10.412 C109.433,10.169 110.784,9.119 110.784,7.388 C110.784,7.118 110.728,4.223 107.076,4.223 L101.642,4.223 L101.642,17.207 L106.233,17.207 C107.449,17.207 111.238,17.207 111.238,13.556 C111.238,12.643 110.866,10.926 108.514,10.412 L108.514,10.412 Z" id="Shape"></path>
	                <path d="M32.869,28.921 C32.869,30.286 31.832,31.323 30.468,31.323 C29.157,31.323 28.257,30.423 28.257,29.113 C28.257,27.775 29.294,26.738 30.658,26.738 C31.941,26.738 32.869,27.666 32.869,28.921 Z" id="Path"></path>
	            </g>
	        
	</symbol>

	

</svg>
